<svg xmlns="http://www.w3.org/2000/svg" version="1.1" xmlns:xlink="http://www.w3.org/1999/xlink" xmlns:svgjs="http://svgjs.dev/svgjs" width="1000" height="1000" viewBox="0 0 1000 1000"><rect width="1000" height="1000" fill="#000000"></rect><g transform="matrix(0.4679144385026738,0,0,0.4679144385026738,266.4298736590793,150.28340080971657)"><svg viewBox="0 0 165 247" data-background-color="#ffffff" preserveAspectRatio="xMidYMid meet" height="1496" width="1000" xmlns="http://www.w3.org/2000/svg" xmlns:xlink="http://www.w3.org/1999/xlink"><defs></defs><g id="tight-bounds" transform="matrix(1,0,0,1,-0.13649997998979302,-0.09999999999999432)"><svg viewBox="0 0 165.27269799488255 247.2" height="247.2" width="165.27269799488255"><g><svg></svg></g><g><svg viewBox="0 0 165.27269799488255 247.2" height="247.2" width="165.27269799488255"><g transform="matrix(1,0,0,1,0,47.215199999999996)"><svg viewBox="0 0 165.27269799488255 152.7696" height="152.7696" width="165.27269799488255"><g><svg viewBox="0 0 244.43135999999998 225.9398046240658" height="152.7696" width="165.27269799488255"><g transform="matrix(1,0,0,1,0,143.10154386732063)"><svg viewBox="0 0 244.43135999999998 82.83826075674516" height="82.83826075674516" width="244.43135999999998"><g><svg viewBox="0 0 244.43135999999998 82.83826075674516" height="82.83826075674516" width="244.43135999999998"><g><svg viewBox="0 0 244.43135999999998 44.678999543031225" height="44.678999543031225" width="244.43135999999998"><g transform="matrix(1,0,0,1,0,0)"><svg width="244.43135999999998" viewBox="2.200000047683716 -35.5 196.9199981689453 36" height="44.678999543031225" data-palette-color="#ff5858"><path d="M5.5 0L2.2 0 2.2-34.2Q2.2-34.2 2.33-34.6 2.45-35 3.05-35L3.05-35 15.05-35Q15.05-33.35 15-32.63 14.95-31.9 14.8-31.7 14.65-31.5 14.3-31.5L14.3-31.5 6.25-31.5 6.25-0.8Q6.25-0.8 6.2-0.4 6.15 0 5.5 0L5.5 0ZM13.05-17.2L2.75-17.2 2.75-20.9 13.8-20.9Q13.8-18.6 13.7-17.9 13.6-17.2 13.05-17.2L13.05-17.2ZM26.15 0.5L26.15 0.5Q23.7 0.5 21.97-0.33 20.25-1.15 19.17-3.2 18.1-5.25 17.6-8.78 17.1-12.3 17.1-17.7L17.1-17.7Q17.1-24.35 18.15-28.25 19.2-32.15 21.32-33.83 23.45-35.5 26.7-35.5L26.7-35.5Q29.1-35.5 30.8-34.63 32.5-33.75 33.55-31.73 34.6-29.7 35.07-26.33 35.55-22.95 35.55-17.85L35.55-17.85Q35.55-10.95 34.57-6.95 33.6-2.95 31.52-1.23 29.45 0.5 26.15 0.5ZM26.3-3.7L26.3-3.7Q28.15-3.7 29.17-5.08 30.2-6.45 30.67-9.58 31.15-12.7 31.15-17.75L31.15-17.75Q31.15-22.75 30.75-25.73 30.35-28.7 29.37-30 28.4-31.3 26.6-31.3L26.6-31.3Q24.85-31.3 23.75-29.9 22.65-28.5 22.15-25.3 21.65-22.1 21.65-16.7L21.65-16.7Q21.65-12.05 22.07-9.2 22.5-6.35 23.52-5.03 24.55-3.7 26.3-3.7ZM47.6 0.5L47.6 0.5Q45.15 0.5 43.42-0.33 41.7-1.15 40.62-3.2 39.55-5.25 39.05-8.78 38.55-12.3 38.55-17.7L38.55-17.7Q38.55-24.35 39.6-28.25 40.65-32.15 42.77-33.83 44.9-35.5 48.15-35.5L48.15-35.5Q50.55-35.5 52.25-34.63 53.95-33.75 55-31.73 56.05-29.7 56.52-26.33 57-22.95 57-17.85L57-17.85Q57-10.95 56.02-6.95 55.05-2.95 52.97-1.23 50.9 0.5 47.6 0.5ZM47.75-3.7L47.75-3.7Q49.6-3.7 50.62-5.08 51.65-6.45 52.12-9.58 52.6-12.7 52.6-17.75L52.6-17.75Q52.6-22.75 52.2-25.73 51.8-28.7 50.82-30 49.85-31.3 48.05-31.3L48.05-31.3Q46.3-31.3 45.2-29.9 44.1-28.5 43.6-25.3 43.1-22.1 43.1-16.7L43.1-16.7Q43.1-12.05 43.52-9.2 43.95-6.35 44.97-5.03 46-3.7 47.75-3.7ZM66.94 0L60.69 0 60.69-34.05Q60.69-34.5 60.97-34.75 61.24-35 62.04-35L62.04-35 66.89-35Q69.34-35 71.19-34.25 73.04-33.5 74.24-31.73 75.44-29.95 76.07-26.9 76.69-23.85 76.69-19.3L76.69-19.3Q76.69-13.8 76.04-10.08 75.39-6.35 74.12-4.15 72.84-1.95 71.04-0.98 69.24 0 66.94 0L66.94 0ZM64.74-31.25L64.74-3.85 66.99-3.85Q67.99-3.85 68.89-4.4 69.79-4.95 70.52-6.58 71.24-8.2 71.67-11.35 72.09-14.5 72.09-19.7L72.09-19.7Q72.09-23.15 71.77-25.4 71.44-27.65 70.82-28.95 70.19-30.25 69.24-30.75 68.29-31.25 67.04-31.25L67.04-31.25 64.74-31.25ZM93.59 0.5L93.59 0.5Q90.14 0.5 88.56-0.48 86.99-1.45 86.99-2.5L86.99-2.5Q86.99-3.1 87.24-3.93 87.49-4.75 88.04-5.4L88.04-5.4Q88.84-4.65 90.11-4.15 91.39-3.65 93.19-3.65L93.19-3.65Q95.84-3.65 96.96-5.05 98.09-6.45 98.09-8.75L98.09-8.75Q98.09-10.45 97.46-11.9 96.84-13.35 95.19-15.25L95.19-15.25 90.19-21.1Q88.49-23.2 87.76-24.88 87.04-26.55 87.04-28.35L87.04-28.35Q87.04-31.5 89.26-33.5 91.49-35.5 95.64-35.5L95.64-35.5Q99.19-35.5 100.69-34.77 102.19-34.05 102.19-33L102.19-33Q102.19-32.5 101.94-31.88 101.69-31.25 101.19-30.7L101.19-30.7Q100.69-31.05 99.36-31.48 98.04-31.9 96.29-31.9L96.29-31.9Q94.04-31.9 92.71-31 91.39-30.1 91.39-28.45L91.39-28.45Q91.39-27.1 92.01-25.98 92.64-24.85 93.74-23.5L93.74-23.5 99.14-17.35Q101.09-15.05 101.79-13.15 102.49-11.25 102.49-8.9L102.49-8.9Q102.49-6.4 101.66-4.25 100.84-2.1 98.91-0.8 96.99 0.5 93.59 0.5ZM117.69 0L105.84 0 105.84-34.2Q105.84-34.2 105.96-34.6 106.09-35 106.69-35L106.69-35 118.69-35Q118.69-33.35 118.64-32.6 118.59-31.85 118.44-31.6 118.29-31.35 117.94-31.35L117.94-31.35 109.89-31.35 109.89-3.65 118.49-3.65Q118.49-1.95 118.44-1.18 118.39-0.4 118.24-0.2 118.09 0 117.69 0L117.69 0ZM116.69-17.2L106.39-17.2 106.39-20.9 117.44-20.9Q117.44-18.6 117.34-17.9 117.24-17.2 116.69-17.2L116.69-17.2ZM127.63-14.2L123.18-14.2Q122.43-14.2 122.38-14.45 122.33-14.7 122.33-15.3L122.33-15.3 122.33-34.05Q122.33-34.2 122.36-34.6 122.38-35 122.93-35L122.93-35 127.58-35Q130.73-35 132.78-33.98 134.83-32.95 135.81-30.78 136.78-28.6 136.78-25.1L136.78-25.1Q136.78-22 136.06-19.93 135.33-17.85 134.06-16.6 132.78-15.35 131.13-14.78 129.48-14.2 127.63-14.2L127.63-14.2ZM121.78 0L121.78 0 121.78-34.2Q121.78-34.2 121.91-34.6 122.03-35 122.63-35L122.63-35 125.03-35Q125.63-35 125.73-34.6 125.83-34.2 125.83-34.2L125.83-34.2 125.83-0.8Q125.83-0.4 125.66-0.25 125.48-0.1 124.63-0.05 123.78 0 121.78 0ZM135.08 0.1L135.08 0.1Q134.63 0.1 134.01 0.08 133.38 0.05 132.68 0L132.68 0Q132.43-4.3 131.66-7.23 130.88-10.15 130.01-11.88 129.13-13.6 128.48-14.35 127.83-15.1 127.83-15.1L127.83-15.1Q127.83-15.1 127.73-15.4 127.63-15.7 128.13-16L128.13-16 130.33-17.2Q130.93-17.2 131.18-16.75L131.18-16.75Q131.18-16.75 131.98-15.85 132.78-14.95 133.88-13.03 134.98-11.1 135.93-8.1 136.88-5.1 137.13-0.9L137.13-0.9Q137.13-0.35 136.83-0.13 136.53 0.1 135.08 0.1ZM125.73-31.45L125.73-17.95 128.03-17.95Q129.43-17.95 130.36-18.68 131.28-19.4 131.78-21.03 132.28-22.65 132.28-25.3L132.28-25.3Q132.28-27.2 131.93-28.6 131.58-30 130.71-30.73 129.83-31.45 128.33-31.45L128.33-31.45 125.73-31.45ZM147.28 0.35L147.28 0.35Q146.33 0.35 145.76-0.48 145.18-1.3 144.88-2.55L144.88-2.55Q144.38-4.6 143.68-7.68 142.98-10.75 142.21-14.28 141.43-17.8 140.66-21.25 139.88-24.7 139.28-27.55 138.68-30.4 138.31-32.1 137.93-33.8 137.93-33.8L137.93-33.8Q137.78-34.45 137.88-34.73 137.98-35 138.83-35L138.83-35 142.13-35 146.28-15.65Q146.73-13.45 147.08-11.23 147.43-9 147.73-7.03 148.03-5.05 148.28-3.45L148.28-3.45Q148.48-5.05 148.76-7.03 149.03-9 149.38-11.23 149.73-13.45 150.08-15.65L150.08-15.65 153.83-33.8Q153.93-34.4 154.11-34.7 154.28-35 154.88-35L154.88-35 158.38-35 150.68 0.15Q149.88 0.25 149.16 0.3 148.43 0.35 147.28 0.35ZM160.73 0L160.73 0 160.73-33.15Q160.73-34.1 160.93-34.48 161.13-34.85 162-34.93 162.88-35 164.88-35L164.88-35 164.88-0.8Q164.88-0.4 164.68-0.25 164.48-0.1 163.65-0.05 162.83 0 160.73 0ZM176.83 0.5L176.83 0.5Q175.38 0.5 174.13 0.15 172.88-0.2 171.85-1.15 170.83-2.1 170.08-3.93 169.33-5.75 168.93-8.72 168.53-11.7 168.53-16.05L168.53-16.05Q168.53-21.2 169.1-24.68 169.68-28.15 170.68-30.28 171.68-32.4 172.95-33.55 174.23-34.7 175.63-35.1 177.03-35.5 178.38-35.5L178.38-35.5Q180.23-35.5 181.25-35.08 182.28-34.65 182.68-34.02 183.08-33.4 183.08-32.75L183.08-32.75Q183.08-32.05 182.88-31.4 182.68-30.75 182.43-30.3L182.43-30.3Q182.18-30.5 181.7-30.78 181.23-31.05 180.58-31.28 179.93-31.5 179.18-31.5L179.18-31.5Q178.23-31.5 177.3-31.18 176.38-30.85 175.55-29.93 174.73-29 174.13-27.3 173.53-25.6 173.15-22.9 172.78-20.2 172.78-16.25L172.78-16.25Q172.78-12.45 173.15-10.05 173.53-7.65 174.18-6.33 174.83-5 175.75-4.5 176.68-4 177.78-4L177.78-4Q179.23-4 180.48-4.5 181.73-5 182.38-5.55L182.38-5.55Q182.63-5.05 182.83-4.4 183.03-3.75 183.03-3.1L183.03-3.1Q183.03-2.15 182.25-1.33 181.48-0.5 180.08 0 178.68 0.5 176.83 0.5ZM198.12 0L186.27 0 186.27-34.2Q186.27-34.2 186.4-34.6 186.52-35 187.12-35L187.12-35 199.12-35Q199.12-33.35 199.07-32.6 199.02-31.85 198.87-31.6 198.72-31.35 198.37-31.35L198.37-31.35 190.32-31.35 190.32-3.65 198.92-3.65Q198.92-1.95 198.87-1.18 198.82-0.4 198.67-0.2 198.52 0 198.12 0L198.12 0ZM197.12-17.2L186.82-17.2 186.82-20.9 197.87-20.9Q197.87-18.6 197.77-17.9 197.67-17.2 197.12-17.2L197.12-17.2Z" opacity="1" transform="matrix(1,0,0,1,0,0)" fill="#ffffff" class="undefined-text-0" data-fill-palette-color="primary" id="text-0"></path></svg></g></svg></g><g transform="matrix(1,0,0,1,85.68981677218136,55.22663903915186)"><svg viewBox="0 0 73.05172645563727 27.611621717593295" height="27.611621717593295" width="73.05172645563727"><g transform="matrix(1,0,0,1,0,0)"><svg width="73.05172645563727" viewBox="0.6500000357627869 -37.849998474121094 118.6497573852539 44.849998474121094" height="27.611621717593295" data-palette-color="#ff5858"><path d="M14.25-25.4L10.1-25.4 10.1-7.2Q10.1-5.9 10.65-5.2 11.2-4.5 13-4.5L13-4.5 14.3-4.5Q16.25-4.5 16.15-2.2L16.15-2.2Q16.15 0.15 14.3 0.15L14.3 0.15 12.65 0.15Q11.05 0.15 9.65-0.28 8.25-0.7 6.95-1.5L6.95-1.5 6.95-1.45Q4.5-3.05 4.5-7.15L4.5-7.15 4.5-25.4 2.55-25.4Q0.75-25.4 0.65-27.75L0.65-27.75Q0.65-30.1 2.55-30.1L2.55-30.1 4.5-30.1 4.5-35.45Q4.5-37.85 7.35-37.85L7.35-37.85Q10.1-37.85 10.1-35.45L10.1-35.45 10.1-30.1 14.25-30.1Q16.2-30.1 16.1-27.75L16.1-27.75Q16.1-25.4 14.25-25.4L14.25-25.4ZM34.6 0L28.05 0Q26.5 0 25.1-0.43 23.7-0.85 22.4-1.65L22.4-1.65 22.4-1.6Q19.95-3.15 19.95-7.3L19.95-7.3 19.95-9.75Q19.95-11.8 20.67-13.33 21.4-14.85 22.7-15.75L22.7-15.75 22.65-15.75Q23.9-16.6 25.3-17.03 26.7-17.45 28-17.45L28-17.45 39.05-17.45 39.05-22.1Q39.05-23.35 38.27-24.38 37.5-25.4 35.65-25.4L35.65-25.4 29.8-25.4Q27.9-25.4 27.17-24.48 26.45-23.55 26.45-22.3L26.45-22.3 26.45-21.9Q26.45-19.3 23.65-19.3L23.65-19.3Q20.85-19.3 20.85-21.9L20.85-21.9 20.85-22.35Q20.85-24.4 21.57-25.8 22.3-27.2 23.55-28.15L23.55-28.15 23.5-28.15Q24.8-29 26.22-29.55 27.65-30.1 28.95-30.1L28.95-30.1 36.55-30.1Q37.8-30.1 39.22-29.55 40.65-29 41.9-28.15L41.9-28.15 41.85-28.15Q43.15-27.2 43.85-25.68 44.55-24.15 44.55-22.15L44.55-22.15 44.55-2.1Q44.55 0.3 41.8 0.3L41.8 0.3Q41.25 0.3 40.77 0.25 40.3 0.2 39.92-0.03 39.55-0.25 39.32-0.68 39.1-1.1 39.1-1.8L39.1-1.8 39.05-12.75 28.95-12.75Q27.85-12.75 27.25-12.5 26.65-12.25 26.3-11.7L26.3-11.7Q25.9-10.85 25.72-10.38 25.55-9.9 25.55-9.3L25.55-9.3 25.55-7.35Q25.55-6.05 26.32-5.38 27.1-4.7 29-4.7L29-4.7 34.6-4.7Q36.45-4.7 36.45-2.35L36.45-2.35Q36.45-1.35 36-0.68 35.55 0 34.6 0L34.6 0ZM59.9-17.5L67.25-17.5Q68.5-17.5 69.92-16.93 71.34-16.35 72.59-15.5L72.59-15.5 72.55-15.5Q73.84-14.55 74.55-13.05 75.25-11.55 75.25-9.45L75.25-9.45 75.25-7.95Q75.25-3.85 72.55-1.9L72.55-1.9Q71.25-0.9 69.9-0.45 68.55 0 67.25 0L67.25 0 58.75 0Q57.45 0 56.09-0.45 54.75-0.9 53.45-1.9L53.45-1.9Q50.74-3.8 50.74-7.95L50.74-7.95 50.74-8.55Q50.74-10.7 53.5-10.65L53.5-10.65Q56.3-10.65 56.3-8.55L56.3-8.55 56.3-8Q56.3-6.8 57.05-5.75 57.8-4.7 59.7-4.7L59.7-4.7 66.3-4.7Q68.19-4.7 68.94-5.75 69.69-6.8 69.69-8L69.69-8 69.69-9.4Q69.69-10.05 69.52-10.65 69.34-11.25 68.94-11.73 68.55-12.2 67.9-12.5 67.25-12.8 66.3-12.8L66.3-12.8 59-12.8Q56.45-12.8 53.65-14.6L53.65-14.6Q50.99-16.3 50.99-20.45L50.99-20.45 50.99-22.15Q50.99-24.15 51.7-25.68 52.4-27.2 53.7-28.15L53.7-28.15 53.65-28.15Q54.9-29 56.3-29.55 57.7-30.1 59-30.1L59-30.1 67-30.1Q68.3-30.1 69.67-29.55 71.05-29 72.34-28.15L72.34-28.15 72.3-28.15Q73.59-27.2 74.3-25.68 75-24.15 75-22.15L75-22.15 75-21.7Q75-20.65 74.3-20.18 73.59-19.7 72.25-19.65L72.25-19.65Q69.5-19.6 69.5-21.7L69.5-21.7 69.5-22.1Q69.5-23.35 68.72-24.38 67.94-25.4 66.09-25.4L66.09-25.4 59.9-25.4Q58.05-25.4 57.27-24.38 56.5-23.35 56.5-22.1L56.5-22.1 56.5-20.9Q56.5-19.6 57.27-18.55 58.05-17.5 59.9-17.5L59.9-17.5ZM92.44-25.4L88.29-25.4 88.29-7.2Q88.29-5.9 88.84-5.2 89.39-4.5 91.19-4.5L91.19-4.5 92.49-4.5Q94.44-4.5 94.34-2.2L94.34-2.2Q94.34 0.15 92.49 0.15L92.49 0.15 90.84 0.15Q89.24 0.15 87.84-0.28 86.44-0.7 85.14-1.5L85.14-1.5 85.14-1.45Q82.69-3.05 82.69-7.15L82.69-7.15 82.69-25.4 80.74-25.4Q78.94-25.4 78.84-27.75L78.84-27.75Q78.84-30.1 80.74-30.1L80.74-30.1 82.69-30.1 82.69-35.45Q82.69-37.85 85.54-37.85L85.54-37.85Q88.29-37.85 88.29-35.45L88.29-35.45 88.29-30.1 92.44-30.1Q94.39-30.1 94.29-27.75L94.29-27.75Q94.29-25.4 92.44-25.4L92.44-25.4ZM102.89 7L100.29 7Q98.54 7 98.44 4.65L98.44 4.65Q98.44 2.3 100.29 2.3L100.29 2.3 102.49 2.3Q104.24 2.3 104.79 1.25L104.79 1.25 105.49-0.6 105.74-1.4 95.99-26.95 95.99-26.9Q95.59-28.1 96.17-28.95 96.74-29.8 97.94-30.2L97.94-30.2Q98.84-30.45 99.39-30.45L99.39-30.45Q100.84-30.45 101.19-28.75L101.19-28.75 105.14-18.9 108.49-10.7 113.84-28.65Q114.29-30.45 115.94-30.45L115.94-30.45Q116.34-30.45 117.24-30.2L117.24-30.2Q118.44-29.85 118.97-29.05 119.49-28.25 119.19-27.15L119.19-27.15Q116.94-19.5 114.62-11.75 112.29-4 110.04 3.6L110.04 3.6Q109.79 4.15 109.27 4.73 108.74 5.3 107.89 5.83 107.04 6.35 105.79 6.68 104.54 7 102.89 7L102.89 7Z" opacity="1" transform="matrix(1,0,0,1,0,0)" fill="#ffffff" class="undefined-text-1" data-fill-palette-color="secondary" id="text-1"></path></svg></g></svg></g></svg></g></svg></g><g transform="matrix(1,0,0,1,55.938727814399996,0)"><svg viewBox="0 0 132.5539043712 132.5539043712" height="132.5539043712" width="132.5539043712"><g><svg></svg></g><g id="icon-0"><svg viewBox="0 0 132.5539043712 132.5539043712" height="132.5539043712" width="132.5539043712"><g><rect width="120.52586490047999" height="120.52586490047999" x="6.014019735360002" y="6.014019735360002" fill="#ffffff" data-fill-palette-color="accent"></rect><rect width="120.52586490047999" height="120.52586490047999" x="2.6645352591003757e-15" y="12.02803947072" fill="#ffffff" opacity="0.5" data-fill-palette-color="accent"></rect></g><g transform="matrix(1,0,0,1,17.1829135296,17.1829135296)"><svg viewBox="0 0 98.18807731199999 98.18807731199999" height="98.18807731199999" width="98.18807731199999"><g><svg xmlns="http://www.w3.org/2000/svg" xmlns:xlink="http://www.w3.org/1999/xlink" version="1.1" x="0" y="0" viewBox="2 2 66 66" style="enable-background:new 0 0 70 70;" xml:space="preserve" height="98.18807731199999" width="98.18807731199999" class="icon-x-0" data-fill-palette-color="background" id="x-0"><g fill="#ffffff" data-fill-palette-color="background"><g fill="#ffffff" data-fill-palette-color="background"><path d="M35 68C16.804 68 2 53.196 2 35S16.804 2 35 2s33 14.804 33 33S53.196 68 35 68zM35 4C17.907 4 4 17.906 4 35s13.907 31 31 31 31-13.906 31-31S52.093 4 35 4z" fill="#ffffff" data-fill-palette-color="background"></path></g><g fill="#ffffff" data-fill-palette-color="background"><g fill="#ffffff" data-fill-palette-color="background"><g fill="#ffffff" data-fill-palette-color="background"><path d="M47.122 32.207c-2.75 0-4.987-2.237-4.987-4.987s2.237-4.987 4.987-4.987 4.987 2.237 4.987 4.987S49.872 32.207 47.122 32.207zM47.122 24.233c-1.647 0-2.987 1.34-2.987 2.987s1.34 2.987 2.987 2.987 2.987-1.34 2.987-2.987S48.769 24.233 47.122 24.233z" fill="#ffffff" data-fill-palette-color="background"></path></g><g fill="#ffffff" data-fill-palette-color="background"><path d="M22.878 32.207c-2.75 0-4.987-2.237-4.987-4.987s2.237-4.987 4.987-4.987 4.987 2.237 4.987 4.987S25.627 32.207 22.878 32.207zM22.878 24.233c-1.647 0-2.987 1.34-2.987 2.987s1.34 2.987 2.987 2.987 2.987-1.34 2.987-2.987S24.525 24.233 22.878 24.233z" fill="#ffffff" data-fill-palette-color="background"></path></g></g><g fill="#ffffff" data-fill-palette-color="background"><g fill="#ffffff" data-fill-palette-color="background"><path d="M51.894 20.065c-0.229 0-0.46-0.079-0.648-0.239-2.45-2.091-7.849-1.091-9.722-0.529-0.528 0.159-1.086-0.141-1.246-0.671-0.159-0.529 0.142-1.086 0.671-1.245 0.319-0.095 7.823-2.296 11.594 0.923 0.42 0.359 0.47 0.99 0.112 1.41C52.458 19.946 52.177 20.065 51.894 20.065z" fill="#ffffff" data-fill-palette-color="background"></path></g><g fill="#ffffff" data-fill-palette-color="background"><path d="M18.106 20.065c-0.283 0-0.563-0.119-0.761-0.351-0.358-0.42-0.309-1.051 0.112-1.41 3.772-3.219 11.276-1.018 11.594-0.923 0.528 0.158 0.828 0.716 0.67 1.245-0.158 0.529-0.717 0.829-1.244 0.671-1.876-0.56-7.278-1.557-9.723 0.529C18.566 19.986 18.335 20.065 18.106 20.065z" fill="#ffffff" data-fill-palette-color="background"></path></g></g></g><g fill="#ffffff" data-fill-palette-color="background"><path d="M20.814 51.569c-0.222 0-0.44-0.074-0.618-0.214-0.241-0.19-0.381-0.479-0.382-0.786 0-5.993 5.843-11.25 12.505-11.25h5.362c6.661 0 12.504 5.257 12.505 11.25 0 0.311-0.144 0.603-0.391 0.793-0.246 0.189-0.567 0.253-0.866 0.173-8.815-2.339-18.195-2.337-27.88 0.006C20.972 51.56 20.893 51.569 20.814 51.569zM32.319 41.319c-5.426 0-9.614 3.978-10.379 7.963 9.028-1.991 17.799-2 26.115-0.028-0.779-3.976-4.96-7.935-10.374-7.935H32.319z" fill="#ffffff" data-fill-palette-color="background"></path></g><g fill="#ffffff" data-fill-palette-color="background"><path d="M29.032 60.085c-0.877 0-1.716-0.249-2.442-0.731-0.969-0.643-1.618-1.63-1.827-2.78l-0.994-6.262c-0.086-0.545 0.286-1.058 0.831-1.144 0.549-0.087 1.058 0.285 1.145 0.831l0.99 6.24c0.107 0.587 0.449 1.109 0.961 1.448 0.555 0.369 1.242 0.487 1.934 0.333 0.36-0.088 0.706-0.239 1.008-0.444 0.51-0.358 1.358-1.162 1.134-2.403l-1.041-6.048c-0.094-0.544 0.271-1.062 0.816-1.155 0.546-0.093 1.062 0.272 1.155 0.816l1.04 6.04c0.301 1.674-0.435 3.321-1.971 4.398-0.514 0.347-1.076 0.593-1.686 0.743C29.731 60.046 29.379 60.084 29.032 60.085z" fill="#ffffff" data-fill-palette-color="background"></path></g></g></svg></g></svg></g></svg></g></svg></g><g></g></svg></g></svg></g><path d="M0 41.215L0 1 165.273 1 165.273 41.215 162.548 41.215 162.548 3.724 2.724 3.724 2.724 41.215 0 41.215M0 205.985L0 246.2 165.273 246.2 165.273 205.985 162.548 205.985 162.548 243.476 2.724 243.476 2.724 205.985 0 205.985" fill="#ffffff" stroke="transparent" data-fill-palette-color="primary"></path></svg></g></svg><rect width="165.27269799488255" height="247.2" fill="none" stroke="none" visibility="hidden"></rect></g></svg></g></svg>